# xmcd
#
# Track frame offsets:
#	150
#	13204
#	27410
#	41994
#	53741
#	68532
#	80477
#	86699
#	99390
#	111480
#	121350
#	132801
#	143931
#	153150
#	166121
#	178493
#	191866
#	203562
#	216222
#	219468
#	221981
#	226496
#	236317
#	245437
#
# Disc length: 3438 seconds
#
# Revision: 0
# Processed by: cddbd v1.5.2PL0 Copyright (c) Steve Scherf et al.
# Submitted via: EasyCDDAExtractor 16.0.1.1
#
DISCID=610d6c18
DTITLE=Elvis Presley - Elvis Country_The Prequel
DYEAR=1900
DGENRE=Country
TTITLE0=It Keeps Right On A-Hurtin (take 2)
TTITLE1=Kentucky Rain (take 1)
TTITLE2=I Cant Stop Loving You (informal recording)
TTITLE3=From A Jack To A King (take 3)
TTITLE4=Clean Up Your Own Backyard (undubbed master)
TTITLE5=Lets Forget About The Stars (original master with piano overdub)
TTITLE6=When My Blue Moon Turns To Gold Again (live, June 26, 1968)
TTITLE7=Stay Away (take 2)
TTITLE8=Too Much Monkey Business (take 9)
TTITLE9=Just Call Me Lonesome (take 4)
TTITLE10=Guitar Man (take 9)
TTITLE11=You Dont Know Me (spliced take)
TTITLE12=She's A Machine (take 7)
TTITLE13=Tommorow Night (overdubbed version)
TTITLE14=It's A Sin (take 1)
TTITLE15=Lonely Man (take 12)
TTITLE16=A Fool Such As I (take 5)
TTITLE17=Your Cheatin Heart (take 9)
TTITLE18=Little Cabin Home On The Hill (informal)
TTITLE19=Sweetheart You Done Me Wrong (informal)
TTITLE20=Blue Moon Of Kentucky (take 3)
TTITLE21=Blue Moon Of Kentucky (master)
TTITLE22=It Wouldn'T Be The Same Without You (demo)
TTITLE23=I'm Movin' On (1981 remix)
EXTD=
EXTT0=
EXTT1=
EXTT2=
EXTT3=
EXTT4=
EXTT5=
EXTT6=
EXTT7=
EXTT8=
EXTT9=
EXTT10=
EXTT11=
EXTT12=
EXTT13=
EXTT14=
EXTT15=
EXTT16=
EXTT17=
EXTT18=
EXTT19=
EXTT20=
EXTT21=
EXTT22=
EXTT23=
PLAYORDER=
